<?xml version="1.0" encoding="UTF-8" standalone="no"?>
<!-- Created with Inkscape (http://www.inkscape.org/) -->

<svg
   width="22.200001mm"
   height="22.200001mm"
   viewBox="0 0 22.200001 22.200001"
   version="1.1"
   id="svg2637"
   inkscape:version="1.1 (c68e22c387, 2021-05-23)"
   sodipodi:docname="dice-3.svg"
   xmlns:inkscape="http://www.inkscape.org/namespaces/inkscape"
   xmlns:sodipodi="http://sodipodi.sourceforge.net/DTD/sodipodi-0.dtd"
   xmlns="http://www.w3.org/2000/svg"
   xmlns:svg="http://www.w3.org/2000/svg">
  <sodipodi:namedview
     id="namedview2639"
     pagecolor="#ffffff"
     bordercolor="#999999"
     borderopacity="1"
     inkscape:pageshadow="0"
     inkscape:pageopacity="0"
     inkscape:pagecheckerboard="0"
     inkscape:document-units="mm"
     showgrid="false"
     inkscape:zoom="0.67081229"
     inkscape:cx="24.597045"
     inkscape:cy="191.5588"
     inkscape:window-width="1680"
     inkscape:window-height="987"
     inkscape:window-x="-8"
     inkscape:window-y="1072"
     inkscape:window-maximized="1"
     inkscape:current-layer="layer1" />
  <defs
     id="defs2634" />
  <g
     inkscape:label="Layer 1"
     inkscape:groupmode="layer"
     id="layer1"
     transform="translate(-98.549399,-97.760558)">
    <g
       id="g2727">
      <rect
         style="fill:#ffffff;fill-opacity:1;stroke:#000000;stroke-width:1.2;stroke-opacity:1"
         id="rect872-0-4"
         width="21"
         height="21"
         x="99.149399"
         y="98.360558"
         ry="2.7548454" />
      <path
         style="fill:#000000;fill-opacity:1;stroke:none;stroke-width:2;stroke-miterlimit:4;stroke-dasharray:none;stroke-opacity:1"
         id="path940-9-1"
         sodipodi:type="arc"
         sodipodi:cx="104.64138"
         sodipodi:cy="103.55207"
         sodipodi:rx="2.2"
         sodipodi:ry="2.2"
         sodipodi:start="0"
         sodipodi:end="6.2794328"
         sodipodi:open="true"
         sodipodi:arc-type="arc"
         d="m 106.84138,103.55207 a 2.2,2.2 0 0 1 -2.19794,2.2 2.2,2.2 0 0 1 -2.20206,-2.19587 2.2,2.2 0 0 1 2.19381,-2.20412 2.2,2.2 0 0 1 2.20617,2.19174" />
      <path
         style="fill:#000000;fill-opacity:1;stroke:none;stroke-width:2;stroke-miterlimit:4;stroke-dasharray:none;stroke-opacity:1"
         id="path940-9-9"
         sodipodi:type="arc"
         sodipodi:cx="109.79964"
         sodipodi:cy="108.71032"
         sodipodi:rx="2.2"
         sodipodi:ry="2.2"
         sodipodi:start="0"
         sodipodi:end="6.2794328"
         sodipodi:open="true"
         sodipodi:arc-type="arc"
         d="m 111.99964,108.71032 a 2.2,2.2 0 0 1 -2.19794,2.2 2.2,2.2 0 0 1 -2.20206,-2.19587 2.2,2.2 0 0 1 2.19381,-2.20412 2.2,2.2 0 0 1 2.20617,2.19173" />
      <path
         style="fill:#000000;fill-opacity:1;stroke:none;stroke-width:2;stroke-miterlimit:4;stroke-dasharray:none;stroke-opacity:1"
         id="path940-9-3"
         sodipodi:type="arc"
         sodipodi:cx="114.70749"
         sodipodi:cy="113.64654"
         sodipodi:rx="2.2"
         sodipodi:ry="2.2"
         sodipodi:start="0"
         sodipodi:end="6.2794328"
         sodipodi:open="true"
         sodipodi:arc-type="arc"
         d="m 116.90749,113.64654 a 2.2,2.2 0 0 1 -2.19794,2.2 2.2,2.2 0 0 1 -2.20206,-2.19587 2.2,2.2 0 0 1 2.19381,-2.20412 2.2,2.2 0 0 1 2.20617,2.19173" />
    </g>
  </g>
</svg>
