<?xml version="1.0" encoding="UTF-8" standalone="no"?>
<!-- Created with Inkscape (http://www.inkscape.org/) -->

<svg
   width="22.200001mm"
   height="22.200001mm"
   viewBox="0 0 22.200001 22.200001"
   version="1.1"
   id="svg3009"
   inkscape:version="1.1 (c68e22c387, 2021-05-23)"
   sodipodi:docname="dice-6.svg"
   xmlns:inkscape="http://www.inkscape.org/namespaces/inkscape"
   xmlns:sodipodi="http://sodipodi.sourceforge.net/DTD/sodipodi-0.dtd"
   xmlns="http://www.w3.org/2000/svg"
   xmlns:svg="http://www.w3.org/2000/svg">
  <sodipodi:namedview
     id="namedview3011"
     pagecolor="#ffffff"
     bordercolor="#999999"
     borderopacity="1"
     inkscape:pageshadow="0"
     inkscape:pageopacity="0"
     inkscape:pagecheckerboard="0"
     inkscape:document-units="mm"
     showgrid="false"
     inkscape:zoom="0.67081229"
     inkscape:cx="-207.95683"
     inkscape:cy="188.57734"
     inkscape:window-width="1680"
     inkscape:window-height="987"
     inkscape:window-x="-8"
     inkscape:window-y="1072"
     inkscape:window-maximized="1"
     inkscape:current-layer="layer1" />
  <defs
     id="defs3006" />
  <g
     inkscape:label="Layer 1"
     inkscape:groupmode="layer"
     id="layer1"
     transform="translate(-160.12401,-98.625601)">
    <g
       id="g3114">
      <rect
         style="fill:#ffffff;fill-opacity:1;stroke:#000000;stroke-width:1.2;stroke-opacity:1"
         id="rect872-0-4-6-4-5"
         width="21"
         height="21"
         x="160.72401"
         y="99.225601"
         ry="2.7548454" />
      <path
         style="fill:#000000;fill-opacity:1;stroke:none;stroke-width:2;stroke-miterlimit:4;stroke-dasharray:none;stroke-opacity:1"
         id="path940-9-1-4-4-5"
         sodipodi:type="arc"
         sodipodi:cx="166.16594"
         sodipodi:cy="104.26687"
         sodipodi:rx="2.2"
         sodipodi:ry="2.2"
         sodipodi:start="0"
         sodipodi:end="6.2794328"
         sodipodi:open="true"
         sodipodi:arc-type="arc"
         d="m 168.36594,104.26687 a 2.2,2.2 0 0 1 -2.19794,2.2 2.2,2.2 0 0 1 -2.20206,-2.19587 2.2,2.2 0 0 1 2.19381,-2.20412 2.2,2.2 0 0 1 2.20617,2.19173" />
      <path
         style="fill:#000000;fill-opacity:1;stroke:none;stroke-width:2;stroke-miterlimit:4;stroke-dasharray:none;stroke-opacity:1"
         id="path940-9-1-4-4-5-9"
         sodipodi:type="arc"
         sodipodi:cx="166.216"
         sodipodi:cy="114.5333"
         sodipodi:rx="2.2"
         sodipodi:ry="2.2"
         sodipodi:start="0"
         sodipodi:end="6.2794328"
         sodipodi:open="true"
         sodipodi:arc-type="arc"
         d="m 168.416,114.5333 a 2.2,2.2 0 0 1 -2.19793,2.2 2.2,2.2 0 0 1 -2.20206,-2.19587 2.2,2.2 0 0 1 2.1938,-2.20412 2.2,2.2 0 0 1 2.20618,2.19174" />
      <path
         style="fill:#000000;fill-opacity:1;stroke:none;stroke-width:2;stroke-miterlimit:4;stroke-dasharray:none;stroke-opacity:1"
         id="path940-9-1-4-4-5-9-2"
         sodipodi:type="arc"
         sodipodi:cx="166.16592"
         sodipodi:cy="109.37505"
         sodipodi:rx="2.2"
         sodipodi:ry="2.2"
         sodipodi:start="0"
         sodipodi:end="6.2794328"
         sodipodi:open="true"
         sodipodi:arc-type="arc"
         d="m 168.36592,109.37505 a 2.2,2.2 0 0 1 -2.19793,2.2 2.2,2.2 0 0 1 -2.20206,-2.19587 2.2,2.2 0 0 1 2.1938,-2.20412 2.2,2.2 0 0 1 2.20618,2.19174" />
      <path
         style="fill:#000000;fill-opacity:1;stroke:none;stroke-width:2;stroke-miterlimit:4;stroke-dasharray:none;stroke-opacity:1"
         id="path940-9-1-4-4-5-9-2-9"
         sodipodi:type="arc"
         sodipodi:cx="176.38228"
         sodipodi:cy="109.27488"
         sodipodi:rx="2.2"
         sodipodi:ry="2.2"
         sodipodi:start="0"
         sodipodi:end="6.2794328"
         sodipodi:open="true"
         sodipodi:arc-type="arc"
         d="m 178.58228,109.27488 a 2.2,2.2 0 0 1 -2.19794,2.2 2.2,2.2 0 0 1 -2.20206,-2.19587 2.2,2.2 0 0 1 2.19381,-2.20412 2.2,2.2 0 0 1 2.20617,2.19173" />
      <path
         style="fill:#000000;fill-opacity:1;stroke:none;stroke-width:2;stroke-miterlimit:4;stroke-dasharray:none;stroke-opacity:1"
         id="path940-9-1-4-4-5-1"
         sodipodi:type="arc"
         sodipodi:cx="176.43236"
         sodipodi:cy="114.5333"
         sodipodi:rx="2.2"
         sodipodi:ry="2.2"
         sodipodi:start="0"
         sodipodi:end="6.2794328"
         sodipodi:open="true"
         sodipodi:arc-type="arc"
         d="m 178.63236,114.5333 a 2.2,2.2 0 0 1 -2.19794,2.2 2.2,2.2 0 0 1 -2.20206,-2.19587 2.2,2.2 0 0 1 2.19381,-2.20412 2.2,2.2 0 0 1 2.20617,2.19174" />
      <path
         style="fill:#000000;fill-opacity:1;stroke:none;stroke-width:2;stroke-miterlimit:4;stroke-dasharray:none;stroke-opacity:1"
         id="path940-9-1-4-4-7"
         sodipodi:type="arc"
         sodipodi:cx="176.43236"
         sodipodi:cy="104.21679"
         sodipodi:rx="2.2"
         sodipodi:ry="2.2"
         sodipodi:start="0"
         sodipodi:end="6.2794328"
         sodipodi:open="true"
         sodipodi:arc-type="arc"
         d="m 178.63236,104.21679 a 2.2,2.2 0 0 1 -2.19794,2.2 2.2,2.2 0 0 1 -2.20206,-2.19587 2.2,2.2 0 0 1 2.19381,-2.20412 2.2,2.2 0 0 1 2.20617,2.19173" />
    </g>
  </g>
</svg>
