<?xml version="1.0" encoding="UTF-8" standalone="no"?>
<!-- Created with Inkscape (http://www.inkscape.org/) -->

<svg
   width="266.70016mm"
   height="63.852791mm"
   viewBox="0 0 266.70018 63.852813"
   version="1.1"
   id="svg5"
   inkscape:version="1.1 (c68e22c387, 2021-05-23)"
   sodipodi:docname="myipc-logo.svg"
   xmlns:inkscape="http://www.inkscape.org/namespaces/inkscape"
   xmlns:sodipodi="http://sodipodi.sourceforge.net/DTD/sodipodi-0.dtd"
   xmlns="http://www.w3.org/2000/svg"
   xmlns:svg="http://www.w3.org/2000/svg">
  <sodipodi:namedview
     id="namedview7"
     pagecolor="#646464"
     bordercolor="#999999"
     borderopacity="1"
     inkscape:pageshadow="0"
     inkscape:pageopacity="0"
     inkscape:pagecheckerboard="0"
     inkscape:document-units="mm"
     showgrid="false"
     inkscape:snap-global="true"
     inkscape:zoom="0.54597569"
     inkscape:cx="345.25347"
     inkscape:cy="303.12705"
     inkscape:window-width="1680"
     inkscape:window-height="987"
     inkscape:window-x="-8"
     inkscape:window-y="1072"
     inkscape:window-maximized="1"
     inkscape:current-layer="layer1" />
  <defs
     id="defs2" />
  <g
     inkscape:label="Layer 1"
     inkscape:groupmode="layer"
     id="layer1"
     transform="translate(-180.36354,-83.550991)">
    <g
       aria-label="myIPC.io"
       id="text1928-3"
       style="font-size:70.5556px;line-height:1.25;font-family:Alagard;-inkscape-font-specification:Alagard;stroke-width:0.264583">
      <path
         d="m 226.57743,134.17461 h -4.40972 v -4.40973 -4.40972 -4.40973 -4.40972 -4.40973 -4.40972 h -4.40973 v 4.40972 h -4.40972 v 4.40973 4.40972 4.40973 4.40972 4.40973 h -4.40973 -4.40973 v -4.40973 -4.40972 -4.40973 -4.40972 -4.40973 -4.40972 h -4.40972 v 4.40972 h -4.40973 v 4.40973 4.40972 4.40973 4.40972 4.40973 h -4.40972 -4.40973 v -4.40973 -4.40972 -4.40973 -4.40972 -4.40973 h -4.40972 v -4.40972 h 4.40972 v -4.40973 h 4.40973 v -4.409725 h 4.40972 v 4.409725 4.40973 h 4.40973 v -4.40973 h 4.40972 v -4.409725 h 4.40973 4.40973 v 4.409725 4.40973 h 4.40972 v -4.40973 h 4.40973 v -4.409725 h 4.40972 4.40973 v 4.409725 4.40973 4.40972 4.40973 4.40972 4.40973 h 4.40972 v 4.40972 h -4.40972 v 4.40973 z"
         id="path825" />
      <path
         d="m 248.62606,134.17461 v -4.40973 h -4.40973 v -4.40972 -4.40973 -4.40972 -4.40973 h -4.40972 v -4.40972 h 4.40972 v -4.40973 h 4.40973 v -4.409725 h 4.40972 v 4.409725 4.40973 4.40972 4.40973 4.40972 4.40973 h 4.40973 v 4.40972 h -4.40973 v 4.40973 z m 4.40972,8.81945 h 4.40973 v 4.40972 h -4.40973 -4.40972 -4.40973 v -4.40972 h -4.40972 v -4.40973 -4.40972 h 4.40972 v 4.40972 h 4.40973 v 4.40973 z m 4.40973,0 v -4.40973 h 4.40972 v 4.40973 z m 4.40972,-4.40973 v -4.40972 -4.40973 -4.40972 h -4.40972 v -4.40973 h 4.40972 v -4.40972 -4.40973 -4.40972 -4.40973 h 4.40973 v -4.409725 h 4.40972 v 4.409725 4.40973 4.40972 4.40973 4.40972 4.40973 4.40972 4.40973 h -4.40972 v 4.40972 z"
         id="path827" />
      <path
         d="m 283.90386,134.17461 h -4.40972 v -4.40973 -4.40972 -4.40973 -4.40972 -4.40973 -4.40972 -4.40973 -4.409725 h -4.40973 V 94.48708 h 4.40973 v -4.409726 h 4.40972 v -4.409725 h 4.40973 v 4.409725 4.409726 4.409725 4.409725 4.40973 4.40972 4.40973 4.40972 4.40973 h 4.40972 v 4.40972 h -4.40972 v 4.40973 z"
         id="path829" />
      <path
         d="m 305.95248,134.17461 h -4.40972 v -4.40973 -4.40972 -4.40973 -4.40972 -4.40973 -4.40972 -4.40973 -4.409725 h -4.40973 V 94.48708 h 4.40973 v -4.409726 h 4.40972 v -4.409725 h 4.40973 v 4.409725 h 4.40972 v 4.409726 h -4.40972 v 4.409725 4.409725 4.40973 4.40972 h 4.40972 4.40973 4.40972 v 4.40973 h -4.40972 v 4.40972 h -4.40973 -4.40972 v 4.40973 h 4.40972 v 4.40972 h -4.40972 v 4.40973 z m 17.6389,-22.04863 v -4.40972 -4.40973 -4.409725 -4.409725 h -4.40972 v -4.409726 h -4.40973 v -4.409725 h 4.40973 4.40972 4.40973 v 4.409725 h 4.40973 v 4.409726 4.409725 4.409725 4.40973 h -4.40973 v 4.40972 z"
         id="path831" />
      <path
         d="m 358.86918,129.76488 h 4.40973 v 4.40973 h -4.40973 -4.40972 -4.40973 -4.40972 v -4.40973 h -4.40973 v -4.40972 h -4.40972 v -4.40973 -4.40972 -4.40973 -4.40972 -4.40973 -4.409725 h 4.40972 V 94.48708 h 4.40973 v 4.409725 4.409725 4.40973 4.40972 4.40973 4.40972 h 4.40972 v 4.40973 h 4.40973 v 4.40972 z m 4.40973,0 v -4.40972 h 4.40972 v 4.40972 z m 4.40972,-4.40972 v -4.40973 h 4.40973 v 4.40973 z m 0,-26.458355 h -4.40972 -4.40973 V 94.48708 h -4.40972 v -4.409726 h -4.40973 v 4.409726 h -4.40972 v -4.409726 h 4.40972 v -4.409725 h 4.40973 4.40972 4.40973 v 4.409725 h 4.40972 v -4.409725 h 4.40973 v 4.409725 4.409726 4.409725 z"
         id="path833" />
      <path
         d="m 385.32754,134.17461 h -4.40973 v -4.40973 -4.40972 h 4.40973 4.40972 v 4.40972 4.40973 z"
         id="path835" />
      <path
         d="M 398.55671,98.896805 V 94.48708 90.077354 h 4.40973 v -4.409725 h 4.40972 v 4.409725 4.409726 h -4.40972 v 4.409725 z m 4.40973,35.277805 h -4.40973 v -4.40973 -4.40972 -4.40973 -4.40972 h -4.40972 v -4.40973 h 4.40972 v -4.40972 h 4.40973 v -4.40973 h 4.40972 v 4.40973 4.40972 4.40973 4.40972 4.40973 h 4.40973 v 4.40972 h -4.40973 v 4.40973 z"
         id="path837" />
      <path
         d="m 433.83452,134.17461 h -4.40973 -4.40972 v -4.40973 h -4.40973 v -4.40972 h -4.40972 v -4.40973 -4.40972 -4.40973 -4.40972 h 4.40972 v -4.40973 h 4.40973 v 4.40973 4.40972 4.40973 4.40972 h 4.40972 v 4.40973 h 4.40973 v 4.40972 h 4.40972 v 4.40973 z m 4.40972,-4.40973 v -4.40972 -4.40973 -4.40972 -4.40973 h -4.40972 v -4.40972 h -4.40973 v -4.40973 h -4.40972 v -4.409725 h 4.40972 4.40973 4.40972 v 4.409725 h 4.40973 v 4.40973 h 4.40972 v 4.40972 4.40973 4.40972 4.40973 h -4.40972 v 4.40972 z"
         id="path839" />
    </g>
    <g
       aria-label="myIPC.io"
       id="text1928"
       style="font-size:70.5556px;line-height:1.25;font-family:Alagard;-inkscape-font-specification:Alagard;fill:#ffffff;stroke-width:0.264583">
      <path
         d="m 224.46079,132.05797 h -4.40972 v -4.40973 -4.40972 -4.40973 -4.40972 -4.40973 -4.40972 h -4.40973 v 4.40972 h -4.40972 v 4.40973 4.40972 4.40973 4.40972 4.40973 h -4.40973 -4.40972 v -4.40973 -4.40972 -4.40973 -4.40972 -4.40973 -4.40972 h -4.40973 v 4.40972 h -4.40972 v 4.40973 4.40972 4.40973 4.40972 4.40973 h -4.40973 -4.40972 v -4.40973 -4.40972 -4.40973 -4.40972 -4.40973 h -4.40973 v -4.40972 h 4.40973 v -4.40973 h 4.40972 v -4.409723 h 4.40973 v 4.409723 4.40973 h 4.40972 v -4.40973 h 4.40973 v -4.409723 h 4.40972 4.40973 v 4.409723 4.40973 h 4.40972 v -4.40973 h 4.40973 v -4.409723 h 4.40972 4.40973 v 4.409723 4.40973 4.40972 4.40973 4.40972 4.40973 h 4.40972 v 4.40972 h -4.40972 v 4.40973 z"
         id="path842" />
      <path
         d="m 246.50942,132.05797 v -4.40973 h -4.40973 v -4.40972 -4.40973 -4.40972 -4.40973 h -4.40972 v -4.40972 h 4.40972 v -4.40973 h 4.40973 v -4.409723 h 4.40972 v 4.409723 4.40973 4.40972 4.40973 4.40972 4.40973 h 4.40973 v 4.40972 h -4.40973 v 4.40973 z m 4.40972,8.81945 h 4.40973 v 4.40972 h -4.40973 -4.40972 -4.40973 v -4.40972 h -4.40972 v -4.40973 -4.40972 h 4.40972 v 4.40972 h 4.40973 v 4.40973 z m 4.40973,0 v -4.40973 h 4.40972 v 4.40973 z m 4.40972,-4.40973 v -4.40972 -4.40973 -4.40972 h -4.40972 v -4.40973 h 4.40972 v -4.40972 -4.40973 -4.40972 -4.40973 h 4.40973 v -4.409723 h 4.40972 v 4.409723 4.40973 4.40972 4.40973 4.40972 4.40973 4.40972 4.40973 h -4.40972 v 4.40972 z"
         id="path844" />
      <path
         d="m 281.78722,132.05797 h -4.40972 v -4.40973 -4.40972 -4.40973 -4.40972 -4.40973 -4.40972 -4.40973 -4.409723 h -4.40973 v -4.409726 h 4.40973 v -4.409725 h 4.40972 v -4.409725 h 4.40973 v 4.409725 4.409725 4.409726 4.409723 4.40973 4.40972 4.40973 4.40972 4.40973 h 4.40972 v 4.40972 h -4.40972 v 4.40973 z"
         id="path846" />
      <path
         d="m 303.83585,132.05797 h -4.40973 v -4.40973 -4.40972 -4.40973 -4.40972 -4.40973 -4.40972 -4.40973 -4.409723 h -4.40972 v -4.409726 h 4.40972 v -4.409725 h 4.40973 v -4.409725 h 4.40972 v 4.409725 h 4.40973 v 4.409725 h -4.40973 v 4.409726 4.409723 4.40973 4.40972 h 4.40973 4.40972 4.40973 v 4.40973 h -4.40973 v 4.40972 h -4.40972 -4.40973 v 4.40973 h 4.40973 v 4.40972 h -4.40973 v 4.40973 z m 17.6389,-22.04863 v -4.40972 -4.40973 -4.409723 -4.409726 h -4.40973 v -4.409725 h -4.40972 v -4.409725 h 4.40972 4.40973 4.40972 v 4.409725 h 4.40973 v 4.409725 4.409726 4.409723 4.40973 h -4.40973 v 4.40972 z"
         id="path848" />
      <path
         d="m 356.75254,127.64824 h 4.40973 v 4.40973 h -4.40973 -4.40972 -4.40973 -4.40972 v -4.40973 h -4.40973 v -4.40972 h -4.40972 v -4.40973 -4.40972 -4.40973 -4.40972 -4.40973 -4.409723 h 4.40972 v -4.409726 h 4.40973 v 4.409726 4.409723 4.40973 4.40972 4.40973 4.40972 h 4.40972 v 4.40973 h 4.40973 v 4.40972 z m 4.40973,0 v -4.40972 h 4.40972 v 4.40972 z m 4.40972,-4.40972 v -4.40973 h 4.40973 v 4.40973 z m 0,-26.458353 h -4.40972 -4.40973 v -4.409726 h -4.40972 v -4.409725 h -4.40973 v 4.409725 h -4.40972 v -4.409725 h 4.40972 v -4.409725 h 4.40973 4.40972 4.40973 v 4.409725 h 4.40972 v -4.409725 h 4.40973 v 4.409725 4.409725 4.409726 z"
         id="path850" />
      <path
         d="m 383.2109,132.05797 h -4.40973 v -4.40973 -4.40972 h 4.40973 4.40972 v 4.40972 4.40973 z"
         id="path852" />
      <path
         d="m 396.44007,96.780167 v -4.409726 -4.409725 h 4.40973 v -4.409725 h 4.40973 v 4.409725 4.409725 h -4.40973 v 4.409726 z m 4.40973,35.277803 h -4.40973 v -4.40973 -4.40972 -4.40973 -4.40972 h -4.40972 v -4.40973 h 4.40972 v -4.40972 h 4.40973 v -4.40973 h 4.40973 v 4.40973 4.40972 4.40973 4.40972 4.40973 h 4.40972 v 4.40972 h -4.40972 v 4.40973 z"
         id="path854" />
      <path
         d="m 431.71788,132.05797 h -4.40972 -4.40973 v -4.40973 h -4.40973 v -4.40972 h -4.40972 v -4.40973 -4.40972 -4.40973 -4.40972 h 4.40972 v -4.40973 h 4.40973 v 4.40973 4.40972 4.40973 4.40972 h 4.40973 v 4.40973 h 4.40972 v 4.40972 h 4.40973 v 4.40973 z m 4.40973,-4.40973 v -4.40972 -4.40973 -4.40972 -4.40973 h -4.40973 v -4.40972 h -4.40972 v -4.40973 h -4.40973 v -4.409723 h 4.40973 4.40972 4.40973 v 4.409723 h 4.40972 v 4.40973 h 4.40973 v 4.40972 4.40973 4.40972 4.40973 h -4.40973 v 4.40972 z"
         id="path856" />
    </g>
  </g>
</svg>
